<?xml version="1.0" encoding="UTF-8" standalone="no"?>
<!-- Created with Inkscape (http://www.inkscape.org/) -->

<svg
   width="20.180025mm"
   height="20.180031mm"
   viewBox="0 0 20.180025 20.180031"
   version="1.1"
   id="svg5"
   inkscape:version="1.1.1 (3bf5ae0d25, 2021-09-20)"
   sodipodi:docname="icon.svg"
   inkscape:export-filename="G:\www\egxchange.org\public\img\icon.png"
   inkscape:export-xdpi="644.43909"
   inkscape:export-ydpi="644.43909"
   xmlns:inkscape="http://www.inkscape.org/namespaces/inkscape"
   xmlns:sodipodi="http://sodipodi.sourceforge.net/DTD/sodipodi-0.dtd"
   xmlns="http://www.w3.org/2000/svg"
   xmlns:svg="http://www.w3.org/2000/svg">
  <sodipodi:namedview
     id="namedview7"
     pagecolor="#ffffff"
     bordercolor="#666666"
     borderopacity="1.0"
     inkscape:pageshadow="2"
     inkscape:pageopacity="0.0"
     inkscape:pagecheckerboard="0"
     inkscape:document-units="mm"
     showgrid="false"
     fit-margin-top="0"
     fit-margin-left="0"
     fit-margin-right="0"
     fit-margin-bottom="0"
     inkscape:zoom="4"
     inkscape:cx="65.625"
     inkscape:cy="-8.125"
     inkscape:window-width="2208"
     inkscape:window-height="1035"
     inkscape:window-x="1424"
     inkscape:window-y="357"
     inkscape:window-maximized="0"
     inkscape:current-layer="layer1" />
  <defs
     id="defs2" />
  <g
     inkscape:label="Layer 1"
     inkscape:groupmode="layer"
     id="layer1"
     transform="translate(-72.922273,-93.187074)">
    <path
       id="path15325"
       style="font-style:italic;font-size:10.5833px;line-height:1.25;font-family:Raleway;-inkscape-font-specification:'Raleway Italic';stroke-width:0.264583"
       d="m 74.996454,99.007911 -1.59835,7.513789 h 4.804873 l 0.137977,-0.65577 h -4.074686 l 0.613915,-2.86807 0.126606,-0.62477 0.582396,-2.709407 h 3.979084 l 0.137459,-0.655772 z" />
    <path
       id="path15532"
       style="font-style:italic;font-size:10.5833px;line-height:1.25;font-family:Raleway;-inkscape-font-specification:'Raleway Italic';stroke-width:0.264583"
       d="m 74.55308,101.91126 -0.131773,0.62012 h 4.203877 l 0.125574,-0.6196 h -3.471106 v -5.2e-4 z" />
    <path
       id="path16166"
       style="font-style:italic;font-size:10.5833px;line-height:1.25;font-family:Raleway;-inkscape-font-specification:'Raleway Italic';stroke-width:0.264583"
       d="m 74.340451,102.87873 -0.131773,0.62012 h 4.203877 l 0.125574,-0.6196 h -3.471106 v -5.2e-4 z" />
    <path
       id="path16168"
       style="font-style:italic;font-size:10.5833px;line-height:1.25;font-family:Raleway;-inkscape-font-specification:'Raleway Italic';stroke-width:0.264583"
       d="m 73.266675,101.91126 -0.131773,0.62012 h 4.203877 l 0.125574,-0.6196 h -3.471106 v -5.2e-4 z" />
    <path
       id="path16170"
       style="font-style:italic;font-size:10.5833px;line-height:1.25;font-family:Raleway;-inkscape-font-specification:'Raleway Italic';stroke-width:0.264583"
       d="m 73.054046,102.87873 -0.131773,0.62012 h 4.203877 l 0.125574,-0.6196 h -3.471106 v -5.2e-4 z" />
    <path
       id="path19098"
       style="font-style:italic;font-size:10.4799px;line-height:1.25;font-family:Raleway;-inkscape-font-specification:'Raleway Italic';stroke-width:0.261999"
       d="m 83.387267,99.015145 c -0.544955,0 -1.068962,0.12572 -1.571997,0.377238 -0.496048,0.25152 -0.939418,0.58694 -1.330668,1.006137 -0.384263,0.41222 -0.691866,0.88393 -0.922424,1.41491 -0.230558,0.53099 -0.345716,1.07612 -0.345716,1.63505 0,0.40523 0.05951,0.7963 0.178284,1.17358 0.118772,0.37029 0.289576,0.70186 0.513147,0.9953 0.223571,0.28644 0.496138,0.51728 0.817521,0.69194 0.321384,0.16768 0.684633,0.25167 1.089856,0.25167 0.852365,0 1.680628,-0.37768 2.484086,-1.13223 l -0.230477,1.07952 h 0.628386 l 0.768945,-3.62615 h -2.179195 l -0.109037,0.53485 h 1.550809 l -0.272334,1.24696 c -0.426183,0.42619 -0.84173,0.74049 -1.246953,0.9431 -0.405223,0.19562 -0.807375,0.29352 -1.205611,0.29352 -0.314397,0 -0.597009,-0.0662 -0.848527,-0.19895 -0.251517,-0.13275 -0.468437,-0.31128 -0.650089,-0.53486 -0.174665,-0.23055 -0.310948,-0.49591 -0.408761,-0.79633 -0.09781,-0.30043 -0.146244,-0.62194 -0.146244,-0.96429 0,-0.44715 0.08733,-0.89052 0.261999,-1.33068 0.174666,-0.44714 0.408329,-0.84878 0.701766,-1.2051 0.300424,-0.35632 0.649762,-0.6428 1.047998,-0.85938 0.398237,-0.223567 0.820998,-0.335377 1.26814,-0.335377 0.468102,0 0.86304,0.10846 1.184424,0.325037 0.32837,0.21659 0.555336,0.55537 0.681095,1.01648 l 0.649573,-0.37724 c -0.06288,-0.23754 -0.156912,-0.45446 -0.28267,-0.650087 -0.118772,-0.20261 -0.276182,-0.37342 -0.471806,-0.51315 -0.195625,-0.146716 -0.42594,-0.258524 -0.691431,-0.335377 -0.26549,-0.08384 -0.569746,-0.126091 -0.912089,-0.126091 z" />
    <path
       d="m 88.79506,102.84042 -1.907342,-3.772774 h 0.827912 l 1.603425,3.248784 2.976291,-3.248784 h 0.806953 l -3.510767,3.772774 1.844462,3.66799 h -0.806952 l -1.540545,-3.14399 -2.871493,3.14399 h -0.827912 z"
       id="path19100"
       style="font-style:italic;font-size:10.4799px;line-height:1.25;font-family:Raleway;-inkscape-font-specification:'Raleway Italic';stroke-width:0.261999" />
    <path
       id="path19094"
       style="font-style:italic;font-size:10.5833px;line-height:1.25;font-family:Raleway;-inkscape-font-specification:'Raleway Italic';stroke-width:0.264583"
       d="m 78.544328,102.87873 -0.131773,0.62012 h 4.203877 l 0.125574,-0.6196 H 79.2709 v -5.2e-4 z" />
    <path
       id="path19124"
       style="font-style:italic;font-size:10.5833px;line-height:1.25;font-family:Raleway;-inkscape-font-specification:'Raleway Italic';stroke-width:0.264583"
       d="m 81.269195,102.87873 -0.131773,0.62012 h 4.203877 l 0.125574,-0.6196 h -3.471106 v -5.2e-4 z" />
    <path
       id="path19126"
       style="font-style:italic;font-size:10.5833px;line-height:1.25;font-family:Raleway;-inkscape-font-specification:'Raleway Italic';stroke-width:0.264583"
       d="m 78.015161,102.87873 -0.131773,0.62012 h 4.203877 l 0.125574,-0.6196 h -3.471106 v -5.2e-4 z" />
    <text
       xml:space="preserve"
       style="font-size:10.5833px;line-height:1.25;font-family:Raleway;-inkscape-font-specification:Raleway;stroke-width:0.264583"
       x="64.389458"
       y="97.453484"
       id="text21880"><tspan
         sodipodi:role="line"
         id="tspan21878"
         style="stroke-width:0.264583"
         x="64.389458"
         y="97.453484"></tspan></text>
  </g>
</svg>
