<?xml version="1.0" encoding="UTF-8" standalone="no"?>
<!-- Created with Inkscape (http://www.inkscape.org/) -->

<svg
   width="43.047138mm"
   height="8.1674852mm"
   viewBox="0 0 43.047138 8.1674852"
   version="1.1"
   id="svg5"
   inkscape:version="1.1.1 (3bf5ae0d25, 2021-09-20)"
   sodipodi:docname="logo.svg"
   xmlns:inkscape="http://www.inkscape.org/namespaces/inkscape"
   xmlns:sodipodi="http://sodipodi.sourceforge.net/DTD/sodipodi-0.dtd"
   xmlns="http://www.w3.org/2000/svg"
   xmlns:svg="http://www.w3.org/2000/svg">
  <sodipodi:namedview
     id="namedview7"
     pagecolor="#ffffff"
     bordercolor="#666666"
     borderopacity="1.0"
     inkscape:pageshadow="2"
     inkscape:pageopacity="0.0"
     inkscape:pagecheckerboard="0"
     inkscape:document-units="mm"
     showgrid="false"
     fit-margin-top="0"
     fit-margin-left="0"
     fit-margin-right="0"
     fit-margin-bottom="0"
     inkscape:zoom="4"
     inkscape:cx="65.625"
     inkscape:cy="-8.125"
     inkscape:window-width="2208"
     inkscape:window-height="1035"
     inkscape:window-x="1424"
     inkscape:window-y="357"
     inkscape:window-maximized="0"
     inkscape:current-layer="layer1" />
  <defs
     id="defs2" />
  <g
     inkscape:label="Layer 1"
     inkscape:groupmode="layer"
     id="layer1"
     transform="translate(-72.922273,-93.187074)">
    <path
       id="path15325"
       style="font-style:italic;font-size:10.5833px;line-height:1.25;font-family:Raleway;-inkscape-font-specification:'Raleway Italic';stroke-width:0.264583"
       d="m 74.996454,93.187074 -1.59835,7.513756 h 4.804873 l 0.137977,-0.65577 h -4.074686 l 0.613915,-2.868048 0.126606,-0.624766 0.582396,-2.709397 h 3.979084 l 0.137459,-0.655775 z" />
    <path
       id="path15532"
       style="font-style:italic;font-size:10.5833px;line-height:1.25;font-family:Raleway;-inkscape-font-specification:'Raleway Italic';stroke-width:0.264583"
       d="m 74.55308,96.090417 -0.131773,0.620117 h 4.203877 l 0.125574,-0.619601 h -3.471106 v -5.16e-4 z" />
    <path
       id="path16166"
       style="font-style:italic;font-size:10.5833px;line-height:1.25;font-family:Raleway;-inkscape-font-specification:'Raleway Italic';stroke-width:0.264583"
       d="m 74.340451,97.057879 -0.131773,0.620117 h 4.203877 l 0.125574,-0.619601 h -3.471106 v -5.16e-4 z" />
    <path
       id="path16168"
       style="font-style:italic;font-size:10.5833px;line-height:1.25;font-family:Raleway;-inkscape-font-specification:'Raleway Italic';stroke-width:0.264583"
       d="m 73.266675,96.090417 -0.131773,0.620117 h 4.203877 l 0.125574,-0.619601 h -3.471106 v -5.16e-4 z" />
    <path
       id="path16170"
       style="font-style:italic;font-size:10.5833px;line-height:1.25;font-family:Raleway;-inkscape-font-specification:'Raleway Italic';stroke-width:0.264583"
       d="m 73.054046,97.057879 -0.131773,0.620117 h 4.203877 l 0.125574,-0.619601 h -3.471106 v -5.16e-4 z" />
    <path
       id="path19098"
       style="font-style:italic;font-size:10.4799px;line-height:1.25;font-family:Raleway;-inkscape-font-specification:'Raleway Italic';stroke-width:0.990232"
       d="m 39.552734,0.02734375 c -2.059671,0 -4.04017,0.47516204 -5.941406,1.42578125 -1.874829,0.9506167 -3.550557,2.2183715 -5.029297,3.8027344 -1.452331,1.5579565 -2.614928,3.3407951 -3.486328,5.3476566 -0.871398,2.006858 -1.306641,4.067203 -1.306641,6.179687 0,1.53155 0.224927,3.009619 0.673829,4.435547 0.448902,1.399521 1.094459,2.652664 1.939453,3.761719 0.844994,1.08264 1.875166,1.955077 3.089844,2.615234 1.214679,0.633751 2.58759,0.951172 4.11914,0.951172 3.221538,0 6.351978,-1.427437 9.388672,-4.279297 l -0.871094,4.080078 h 2.375 l 2.90625,-13.705078 h -8.236328 l -0.412109,2.021484 h 5.861328 l -1.029297,4.712891 c -1.610769,1.610769 -3.18134,2.798678 -4.712891,3.564453 -1.531552,0.739359 -3.051496,1.109375 -4.55664,1.109375 -1.188271,0 -2.256412,-0.250248 -3.207031,-0.751953 -0.950617,-0.501715 -1.770473,-1.17649 -2.457032,-2.021484 C 28.000006,22.405943 27.48492,21.403039 27.115234,20.267578 26.745551,19.13212 26.5625,17.916943 26.5625,16.623047 c 0,-1.689988 0.330084,-3.365715 0.990234,-5.029297 0.660153,-1.6899855 1.543292,-3.2079788 2.652344,-4.5546875 1.135461,-1.3467087 2.455794,-2.4294592 3.960938,-3.2480469 1.505146,-0.844994 3.102983,-1.2675781 4.792968,-1.2675781 1.769207,0 3.261886,0.4099279 4.476563,1.2285156 1.241083,0.8185877 2.098908,2.0989988 2.574219,3.8417969 L 48.464844,6.1679688 C 48.22719,5.2701621 47.871793,4.4503063 47.396484,3.7109375 46.947582,2.9451624 46.35265,2.2996053 45.613281,1.7714844 44.87391,1.2169571 44.003429,0.79437302 43,0.50390625 41.996571,0.18703318 40.84663,0.02734375 39.552734,0.02734375 Z"
       transform="matrix(0.26458333,0,0,0.26458333,72.922273,93.187074)" />
    <path
       d="m 88.79506,97.019573 -1.907342,-3.772764 h 0.827912 l 1.603425,3.248769 2.976291,-3.248769 h 0.806953 l -3.510767,3.772764 1.844462,3.667967 h -0.806952 l -1.540545,-3.143972 -2.871493,3.143972 h -0.827912 z"
       id="path19100"
       style="font-style:italic;font-size:10.4799px;line-height:1.25;font-family:Raleway;-inkscape-font-specification:'Raleway Italic';stroke-width:0.261999" />
    <path
       id="path19094"
       style="font-style:italic;font-size:10.5833px;line-height:1.25;font-family:Raleway;-inkscape-font-specification:'Raleway Italic';stroke-width:0.264583"
       d="m 78.544328,97.057879 -0.131773,0.620117 h 4.203877 l 0.125574,-0.619601 H 79.2709 v -5.16e-4 z" />
    <path
       id="path19124"
       style="font-style:italic;font-size:10.5833px;line-height:1.25;font-family:Raleway;-inkscape-font-specification:'Raleway Italic';stroke-width:0.264583"
       d="m 81.269195,97.057879 -0.131773,0.620117 h 4.203877 l 0.125574,-0.619601 h -3.471106 v -5.16e-4 z" />
    <path
       id="path19126"
       style="font-style:italic;font-size:10.5833px;line-height:1.25;font-family:Raleway;-inkscape-font-specification:'Raleway Italic';stroke-width:0.264583"
       d="m 78.015161,97.057879 -0.131773,0.620117 h 4.203877 l 0.125574,-0.619601 h -3.471106 v -5.16e-4 z" />
    <text
       xml:space="preserve"
       style="font-size:10.5833px;line-height:1.25;font-family:Raleway;-inkscape-font-specification:Raleway;stroke-width:0.264583"
       x="64.389458"
       y="97.453484"
       id="text21880"><tspan
         sodipodi:role="line"
         id="tspan21878"
         style="stroke-width:0.264583"
         x="64.389458"
         y="97.453484"></tspan></text>
    <text
       xml:space="preserve"
       style="font-style:italic;font-size:7.90675px;line-height:1.25;font-family:Raleway;-inkscape-font-specification:'Raleway Italic';letter-spacing:-0.476876px;fill:#808080;stroke-width:0.247086"
       x="91.953201"
       y="99.591354"
       id="text25624"><tspan
         sodipodi:role="line"
         id="tspan25622"
         style="font-size:7.90675px;fill:#808080;stroke-width:0.247086"
         x="91.953201"
         y="99.591354">change</tspan></text>
  </g>
</svg>
